<svg xmlns="http://www.w3.org/2000/svg" width="261.8" height="261.8" viewBox="0 0 261.8 261.8">
  <defs>
    <style>
      .cls-1 {
        fill: #be567c;
      }
    </style>
  </defs>
  <title>Course_Icon_LinAlgebra (2)</title>
  <g id="Laag_2" data-name="Laag 2">
    <g id="Laag_1-2" data-name="Laag 1">
      <g id="Course_Icon_LinAlgebra">
        <path class="cls-1" d="M213.88,261.8h-166A48,48,0,0,1,0,213.88v-166A48,48,0,0,1,47.91,0h166A48,48,0,0,1,261.8,47.91v166A48,48,0,0,1,213.88,261.8ZM47.91,20.5A27.45,27.45,0,0,0,20.5,47.91v166A27.45,27.45,0,0,0,47.91,241.3h166a27.45,27.45,0,0,0,27.42-27.42v-166A27.45,27.45,0,0,0,213.88,20.5Z"/>
        <g>
          <path class="cls-1" d="M60.25,64.7a3.75,3.75,0,0,0,0-7.5H44.74A3.75,3.75,0,0,0,41,61v139.9a3.75,3.75,0,0,0,3.75,3.75H60.25a3.75,3.75,0,0,0,0-7.5H48.48V64.7Z"/>
          <path class="cls-1" d="M97.29,90.58H79.54a11.06,11.06,0,0,1,1.85-4.94,25,25,0,0,1,5.81-5.47,17.53,17.53,0,0,0,3.32-2.93,3.28,3.28,0,0,0,.73-1.91,2.21,2.21,0,0,0-.72-1.66,2.74,2.74,0,0,0-3.66,0,4.37,4.37,0,0,0-1,2.52L80,75.72a9.61,9.61,0,0,1,1.27-3.9,5.9,5.9,0,0,1,2.63-2.14,11.62,11.62,0,0,1,4.68-.75,13.13,13.13,0,0,1,4.86.71,5.85,5.85,0,0,1,3.73,5.49A6.85,6.85,0,0,1,96,78.85a15.68,15.68,0,0,1-4.15,3.89c-1.19.82-2,1.4-2.39,1.73s-.88.76-1.42,1.29h9.24Z"/>
          <path class="cls-1" d="M136.26,167.92v21.66h-6v-14.2a17.69,17.69,0,0,1-2.81,1.79,21.33,21.33,0,0,1-3.4,1.31v-4.86a14.31,14.31,0,0,0,4.69-2.33,9.66,9.66,0,0,0,2.62-3.37Z"/>
          <path class="cls-1" d="M79.33,137.94H96.72V120.56H79.33v17.38Zm21.13,7.5H75.58a3.75,3.75,0,0,1-3.74-3.75V116.81a3.74,3.74,0,0,1,3.74-3.74h24.88a3.74,3.74,0,0,1,3.75,3.74v24.88A3.75,3.75,0,0,1,100.46,145.44Z"/>
          <path class="cls-1" d="M75.58,162.56h24.88a3.75,3.75,0,0,1,3.75,3.75v24.88a3.75,3.75,0,0,1-3.75,3.74H75.58a3.75,3.75,0,0,1-3.74-3.74V166.31a3.75,3.75,0,0,1,3.74-3.75Zm21.14,7.49H79.33v17.39H96.72Z"/>
          <path class="cls-1" d="M118.46,63.57h24.88a3.74,3.74,0,0,1,3.74,3.75V92.19a3.74,3.74,0,0,1-3.74,3.75H118.46a3.75,3.75,0,0,1-3.75-3.75V67.32a3.75,3.75,0,0,1,3.75-3.75Zm21.13,7.49H122.21V88.45h17.38Z"/>
          <path class="cls-1" d="M122.21,137.94h17.38V120.56H122.21v17.38Zm21.13,7.5H118.46a3.75,3.75,0,0,1-3.75-3.75V116.81a3.74,3.74,0,0,1,3.75-3.74h24.88a3.73,3.73,0,0,1,3.74,3.74v24.88A3.74,3.74,0,0,1,143.34,145.44Z"/>
          <path class="cls-1" d="M161.34,162.56h24.88a3.75,3.75,0,0,1,3.74,3.75v24.88a3.75,3.75,0,0,1-3.74,3.74H161.34a3.75,3.75,0,0,1-3.75-3.74V166.31a3.75,3.75,0,0,1,3.75-3.75Zm21.13,7.49H165.08v17.39h17.39Z"/>
          <path class="cls-1" d="M201.55,57.2a3.75,3.75,0,0,0,0,7.5h11.77V197.1H201.55a3.75,3.75,0,0,0,0,7.5h15.51a3.75,3.75,0,0,0,3.75-3.75V61a3.75,3.75,0,0,0-3.75-3.75Z"/>
          <path class="cls-1" d="M171.41,124.94l-5.59-1a7.07,7.07,0,0,1,2.68-4.1,9.62,9.62,0,0,1,5.62-1.42q4.17,0,6,1.55a4.89,4.89,0,0,1,1.86,3.91,4.38,4.38,0,0,1-.75,2.5,6.39,6.39,0,0,1-2.28,2,7.08,7.08,0,0,1,1.89.71,4.72,4.72,0,0,1,1.65,1.73,5.2,5.2,0,0,1,.59,2.55,7.08,7.08,0,0,1-1,3.56,6.54,6.54,0,0,1-2.8,2.63,10.79,10.79,0,0,1-4.81.92,12.56,12.56,0,0,1-4.58-.68,6.78,6.78,0,0,1-2.77-2,9.14,9.14,0,0,1-1.66-3.3l5.91-.79a4.67,4.67,0,0,0,1.09,2.48,2.78,2.78,0,0,0,3.85-.18,3.37,3.37,0,0,0,.79-2.33,3.26,3.26,0,0,0-.76-2.29,2.73,2.73,0,0,0-2.08-.82,7.56,7.56,0,0,0-1.91.35l.3-4.22a5.39,5.39,0,0,0,.77.07,2.71,2.71,0,0,0,1.94-.74,2.34,2.34,0,0,0,.78-1.76,2.11,2.11,0,0,0-.58-1.55,2.15,2.15,0,0,0-1.6-.58,2.35,2.35,0,0,0-1.7.63A3.83,3.83,0,0,0,171.41,124.94Z"/>
          <path class="cls-1" d="M175.56,86.6H164.78V81.74l10.78-12.81h5.15V82h2.68V86.6h-2.68v4h-5.15v-4Zm0-4.59V75.32L169.86,82Z"/>
        </g>
      </g>
    </g>
  </g>
</svg>
